<?xml version="1.0" standalone="no"?>
<svg width="360" height="360" version="1.1"
     xmlns="http://www.w3.org/2000/svg">
    <!-- Top, left and bottom blue border. -->
    <path d="
        M 0 0
        L 340 0
        L 340 30
        L 20 30
        L 20 320
        L 340 320
        L 340 330
        L 0 330
        L 0 0
        Z
    " fill="#000070" stroke-style="none"/>
    <!-- Top, left and bottom border. -->
    <path d="
        M 20 30
        L 360 30
        L 360 360
        L 20 360
        L 20 330
        L 340 330
        L 340 40
        L 20 40
        Z
    " fill="#808080" stroke-style="none"/>
    <!-- t -->
    <g>
        <rect x="60" y="140" width="10" height="80" fill="#000070" stroke-style="none" />
        <rect x="70" y="220" width="30" height="10" fill="#000070" stroke-style="none" />
        <rect x="50" y="170" width="40" height="10" fill="#000070" stroke-style="none" />
    </g>
    <!-- h -->
    <g>
        <rect x="120" y="140" width="10" height="90" fill="#000070" stroke-style="none" />
        <rect x="120" y="170" width="40" height="10" fill="#000070" stroke-style="none" />
        <rect x="160" y="180" width="10" height="50" fill="#000070" stroke-style="none" />
    </g>
    <!-- e -->
    <g>
        <rect x="190" y="190" width="50" height="10" fill="#000070" stroke-style="none" />
        <rect x="230" y="180" width="10" height="20" fill="#000070" stroke-style="none" />
        <rect x="200" y="170" width="30" height="10" fill="#000070" stroke-style="none" />
        <rect x="190" y="180" width="10" height="40" fill="#000070" stroke-style="none" />
        <rect x="200" y="220" width="30" height="10" fill="#000070" stroke-style="none"/>
    </g>
    <!-- n -->
    <g>
        <rect x="260" y="170" width="10" height="60" fill="#000070" stroke-style="none"/>
        <rect x="260" y="170" width="40" height="10" fill="#000070" stroke-style="none"/>
        <rect x="300" y="180" width="10" height="50" fill="#000070" stroke-style="none"/>
    </g>
</svg>